<svg xmlns="http://www.w3.org/2000/svg" xmlns:xlink="http://www.w3.org/1999/xlink" width="72" height="72" viewBox="0 0 72 72">
    <defs>
        <path id="b" d="M36 12c6.518 0 7.335.028 9.895.144 2.555.117 4.3.523 5.826 1.116 1.578.613 2.917 1.434 4.25 2.768 1.335 1.334 2.156 2.673 2.77 4.251.592 1.527.998 3.271 1.115 5.826.116 2.56.144 3.377.144 9.895s-.028 7.335-.144 9.895c-.117 2.555-.523 4.3-1.116 5.826-.613 1.578-1.434 2.917-2.768 4.25-1.334 1.335-2.673 2.156-4.251 2.77-1.527.592-3.271.998-5.826 1.115-2.56.116-3.377.144-9.895.144s-7.335-.028-9.895-.144c-2.555-.117-4.3-.523-5.826-1.116-1.578-.613-2.917-1.434-4.25-2.768-1.335-1.334-2.156-2.673-2.769-4.251-.593-1.527-1-3.271-1.116-5.826C12.028 43.335 12 42.518 12 36s.028-7.335.144-9.895c.117-2.555.523-4.3 1.116-5.826.613-1.578 1.434-2.917 2.768-4.25 1.334-1.335 2.673-2.156 4.251-2.769 1.527-.593 3.271-1 5.826-1.116C28.665 12.028 29.482 12 36 12z"/>
        <filter id="a" width="114.6%" height="114.6%" x="-7.3%" y="-5.2%" filterUnits="objectBoundingBox">
            <feOffset dy="1" in="SourceAlpha" result="shadowOffsetOuter1"/>
            <feGaussianBlur in="shadowOffsetOuter1" result="shadowBlurOuter1" stdDeviation="1"/>
            <feColorMatrix in="shadowBlurOuter1" values="0 0 0 0 0.517647059 0 0 0 0 0.105882353 0 0 0 0 0.0823529412 0 0 0 0.498497596 0"/>
        </filter>
        <path id="d" d="M36 23.676c6.807 0 12.324 5.517 12.324 12.324 0 6.807-5.517 12.324-12.324 12.324-6.807 0-12.324-5.517-12.324-12.324 0-6.807 5.517-12.324 12.324-12.324z"/>
        <filter id="c" width="128.4%" height="128.4%" x="-14.2%" y="-10.1%" filterUnits="objectBoundingBox">
            <feOffset dy="1" in="SourceAlpha" result="shadowOffsetOuter1"/>
            <feGaussianBlur in="shadowOffsetOuter1" result="shadowBlurOuter1" stdDeviation="1"/>
            <feColorMatrix in="shadowBlurOuter1" values="0 0 0 0 0.517647059 0 0 0 0 0.105882353 0 0 0 0 0.0823529412 0 0 0 0.498497596 0"/>
        </filter>
        <path id="f" d="M51.691 23.189a2.88 2.88 0 1 1-5.76 0 2.88 2.88 0 0 1 5.76 0z"/>
        <filter id="e" width="221.5%" height="221.5%" x="-60.8%" y="-43.4%" filterUnits="objectBoundingBox">
            <feOffset dy="1" in="SourceAlpha" result="shadowOffsetOuter1"/>
            <feGaussianBlur in="shadowOffsetOuter1" result="shadowBlurOuter1" stdDeviation="1"/>
            <feColorMatrix in="shadowBlurOuter1" values="0 0 0 0 0.517647059 0 0 0 0 0.105882353 0 0 0 0 0.0823529412 0 0 0 0.498497596 0"/>
        </filter>
    </defs>
    <g fill="none" fill-rule="nonzero">
        <path fill="#E96F68" d="M36 72c19.882 0 36-16.118 36-36S55.882 0 36 0 0 16.118 0 36s16.118 36 36 36z"/>
        <g>
            <use fill="#000" filter="url(#a)" xlink:href="#b"/>
            <use fill="#FDF6E3" xlink:href="#b"/>
        </g>
        <path fill="#E96F68" d="M36 16.324c-6.408 0-7.167.025-9.698.14-2.34.107-3.61.498-4.457.827-1.12.435-1.92.955-2.76 1.795-.839.84-1.359 1.64-1.794 2.76-.33.845-.72 2.116-.827 4.456-.115 2.53-.14 3.29-.14 9.698s.025 7.167.14 9.698c.107 2.34.498 3.61.827 4.457.435 1.12.955 1.92 1.795 2.76.84.839 1.64 1.359 2.76 1.794.845.33 2.116.72 4.456.827 2.53.115 3.29.14 9.698.14 6.409 0 7.168-.025 9.698-.14 2.34-.107 3.61-.498 4.457-.827 1.12-.435 1.92-.955 2.76-1.795.839-.84 1.359-1.64 1.794-2.76.33-.845.72-2.116.827-4.456.115-2.53.14-3.29.14-9.698s-.025-7.167-.14-9.698c-.107-2.34-.498-3.61-.827-4.457-.435-1.12-.955-1.92-1.795-2.76-.84-.839-1.64-1.359-2.76-1.794-.845-.33-2.116-.72-4.456-.827-2.53-.115-3.29-.14-9.698-.14z"/>
        <g>
            <use fill="#000" filter="url(#c)" xlink:href="#d"/>
            <use fill="#FDF6E3" xlink:href="#d"/>
        </g>
        <path fill="#E96F68" d="M36 44a8 8 0 1 0 0-16 8 8 0 0 0 0 16z"/>
        <g>
            <use fill="#000" filter="url(#e)" xlink:href="#f"/>
            <use fill="#FDF6E3" xlink:href="#f"/>
        </g>
    </g>
</svg>
