<svg xmlns="http://www.w3.org/2000/svg" width="72" height="72" viewBox="0 0 72 72">
    <defs>
        <filter id="a" width="133.3%" height="135.1%" x="-16.7%" y="-17.6%" filterUnits="objectBoundingBox">
            <feOffset dy="1" in="SourceAlpha" result="shadowOffsetOuter1"/>
            <feGaussianBlur in="shadowOffsetOuter1" result="shadowBlurOuter1" stdDeviation="1"/>
            <feColorMatrix in="shadowBlurOuter1" result="shadowMatrixOuter1" values="0 0 0 0 0.0980392157 0 0 0 0 0.333333333 0 0 0 0 0.31372549 0 0 0 0.499399038 0"/>
            <feMerge>
                <feMergeNode in="shadowMatrixOuter1"/>
                <feMergeNode in="SourceGraphic"/>
            </feMerge>
        </filter>
    </defs>
    <g fill="none" fill-rule="evenodd">
        <path fill="#7FD3CF" d="M36 0C16.118 0 0 16.118 0 36s16.118 36 36 36 36-16.118 36-36S55.882 0 36 0z"/>
        <g fill="#FDF6E3" filter="url(#a)" transform="translate(18 17)">
            <path d="M.482 11.817h8.159v24.512H.482zM9.178 4.234C9.125 1.831 7.407 0 4.615 0 1.825 0 0 1.83 0 4.234c0 2.354 1.77 4.237 4.51 4.237h.052c2.845 0 4.616-1.883 4.616-4.237zM28.67 11.241c5.368 0 9.393 3.504 9.393 11.034v14.054h-8.158V23.215c0-3.294-1.18-5.542-4.134-5.542-2.254 0-3.597 1.516-4.186 2.98-.216.524-.269 1.255-.269 1.987v13.69h-8.16s.108-22.212 0-24.513h8.16v3.472c1.083-1.669 3.022-4.048 7.354-4.048z"/>
        </g>
    </g>
</svg>
