<svg xmlns="http://www.w3.org/2000/svg" xmlns:xlink="http://www.w3.org/1999/xlink" width="72" height="72" viewBox="0 0 72 72">
    <defs>
        <path id="b" d="M7.308 41v-4.8H8.78l2.624 4.8h2.432l-3.024-5.024c.8-.181 1.432-.53 1.896-1.048.464-.517.696-1.187.696-2.008 0-.597-.117-1.104-.352-1.52a2.88 2.88 0 0 0-.936-1.008 3.991 3.991 0 0 0-1.336-.552 7.097 7.097 0 0 0-1.552-.168H5.292V41h2.016zm1.648-6.448H7.308v-3.184h1.824c.256 0 .52.021.792.064s.515.123.728.24c.213.117.39.275.528.472.139.197.208.45.208.76 0 .341-.075.621-.224.84-.15.219-.339.387-.568.504-.23.117-.488.197-.776.24a5.888 5.888 0 0 1-.864.064zM23.148 41v-1.792h-5.776v-3.2h5.2v-1.696h-5.2v-2.88h5.488v-1.76h-7.504V41h7.792zm5.008.288a5.52 5.52 0 0 0 1.584-.224 3.82 3.82 0 0 0 1.312-.672c.373-.299.672-.675.896-1.128.224-.453.336-.984.336-1.592 0-.555-.104-1.019-.312-1.392a2.934 2.934 0 0 0-.8-.928 4.37 4.37 0 0 0-1.072-.592c-.39-.15-.765-.283-1.128-.4-.32-.096-.613-.192-.88-.288a2.993 2.993 0 0 1-.68-.336 1.456 1.456 0 0 1-.44-.464c-.107-.181-.16-.4-.16-.656 0-.277.061-.515.184-.712.123-.197.28-.357.472-.48.192-.123.405-.213.64-.272a2.697 2.697 0 0 1 1.88.192c.39.187.69.419.904.696l1.312-1.44a4.28 4.28 0 0 0-1.544-.912 5.386 5.386 0 0 0-1.752-.304 5.8 5.8 0 0 0-1.512.2 4.201 4.201 0 0 0-1.328.608c-.39.272-.704.616-.944 1.032-.24.416-.36.912-.36 1.488 0 .533.085.979.256 1.336.17.357.392.659.664.904s.579.443.92.592c.341.15.683.277 1.024.384l1.008.336c.32.107.597.232.832.376s.421.315.56.512c.139.197.208.445.208.744 0 .31-.061.568-.184.776a1.657 1.657 0 0 1-.48.52 1.92 1.92 0 0 1-.664.296 3.09 3.09 0 0 1-.72.088 3.13 3.13 0 0 1-1.368-.336 2.892 2.892 0 0 1-1.112-.912l-1.44 1.344c.448.533 1.024.936 1.728 1.208a5.946 5.946 0 0 0 2.16.408zm10.608 0c.65 0 1.253-.104 1.808-.312a4.223 4.223 0 0 0 1.44-.888c.405-.384.725-.85.96-1.4.235-.55.352-1.165.352-1.848v-7.168h-2.016v7.088c0 .33-.043.659-.128.984a2.416 2.416 0 0 1-.424.872 2.189 2.189 0 0 1-.784.624c-.325.16-.728.24-1.208.24s-.883-.08-1.208-.24a2.189 2.189 0 0 1-.784-.624 2.416 2.416 0 0 1-.424-.872 3.863 3.863 0 0 1-.128-.984v-7.088h-2.016v7.168c0 .683.115 1.299.344 1.848.23.55.55 1.016.96 1.4.41.384.893.68 1.448.888a5.109 5.109 0 0 0 1.808.312zm8.88-.288v-9.104h.032L51.068 41h1.408l3.44-9.104h.032V41h2V29.672H54.78l-2.912 8.048h-.048l-2.944-8.048h-3.152V41h1.92zm20.592 0v-1.792H62.46v-3.2h5.2v-1.696h-5.2v-2.88h5.488v-1.76h-7.504V41h7.792z"/>
        <filter id="a" width="111.1%" height="158.8%" x="-5.6%" y="-21%" filterUnits="objectBoundingBox">
            <feOffset dy="1" in="SourceAlpha" result="shadowOffsetOuter1"/>
            <feGaussianBlur in="shadowOffsetOuter1" result="shadowBlurOuter1" stdDeviation="1"/>
            <feColorMatrix in="shadowBlurOuter1" values="0 0 0 0 0.109803922 0 0 0 0 0.325490196 0 0 0 0 0.203921569 0 0 0 0.503551136 0"/>
        </filter>
        <path id="d" d="M64.616 29.224L65.976 25H64.12L63 29.224z"/>
        <filter id="c" width="335.2%" height="265.7%" x="-117.6%" y="-59.2%" filterUnits="objectBoundingBox">
            <feOffset dy="1" in="SourceAlpha" result="shadowOffsetOuter1"/>
            <feGaussianBlur in="shadowOffsetOuter1" result="shadowBlurOuter1" stdDeviation="1"/>
            <feColorMatrix in="shadowBlurOuter1" values="0 0 0 0 0.109803922 0 0 0 0 0.325490196 0 0 0 0 0.203921569 0 0 0 0.503551136 0"/>
        </filter>
        <path id="f" d="M19.616 29.224L20.976 25H19.12L18 29.224z"/>
        <filter id="e" width="335.2%" height="265.7%" x="-117.6%" y="-59.2%" filterUnits="objectBoundingBox">
            <feOffset dy="1" in="SourceAlpha" result="shadowOffsetOuter1"/>
            <feGaussianBlur in="shadowOffsetOuter1" result="shadowBlurOuter1" stdDeviation="1"/>
            <feColorMatrix in="shadowBlurOuter1" values="0 0 0 0 0.109803922 0 0 0 0 0.325490196 0 0 0 0 0.203921569 0 0 0 0.503551136 0"/>
        </filter>
    </defs>
    <g fill="none" fill-rule="evenodd">
        <path fill="#84B89A" d="M36 0C16.118 0 0 16.118 0 36s16.118 36 36 36 36-16.118 36-36S55.882 0 36 0z"/>
        <g fill-rule="nonzero">
            <use fill="#000" filter="url(#a)" xlink:href="#b"/>
            <use fill="#FDF6E3" xlink:href="#b"/>
        </g>
        <g fill-rule="nonzero" transform="rotate(39 64.488 27.112)">
            <use fill="#000" filter="url(#c)" xlink:href="#d"/>
            <use fill="#FDF6E3" xlink:href="#d"/>
        </g>
        <g fill-rule="nonzero" transform="rotate(39 19.488 27.112)">
            <use fill="#000" filter="url(#e)" xlink:href="#f"/>
            <use fill="#FDF6E3" xlink:href="#f"/>
        </g>
    </g>
</svg>
